<?xml version="1.0" encoding="utf-8"?>
<!-- Generator: Adobe Illustrator 24.1.2, SVG Export Plug-In . SVG Version: 6.00 Build 0)  -->
<svg version="1.1" id="Layer_1" xmlns="http://www.w3.org/2000/svg" xmlns:xlink="http://www.w3.org/1999/xlink" x="0px" y="0px"
	 viewBox="0 0 515.1 111.2" style="enable-background:new 0 0 515.1 111.2;" xml:space="preserve">
<style type="text/css">
	.st0{fill:#000000;}
</style>
<g id="Layer_2_1_">
	<g id="Layer_1-2">
		<path class="st0" d="M419.9,63.4c0,2.4,2,4.3,4.4,4.3s4.3-2,4.3-4.4c0-2.4-2-4.3-4.4-4.3C421.9,59,419.9,61,419.9,63.4
			C419.9,63.4,419.9,63.4,419.9,63.4 M427.6,76.2H421v34h6.6L427.6,76.2z M277.9,4.4c0,2.4,2,4.3,4.4,4.3c2.4,0,4.3-2,4.3-4.4
			c0-2.4-2-4.3-4.4-4.3C279.8,0,277.9,1.9,277.9,4.4C277.9,4.3,277.9,4.4,277.9,4.4 M481,90.5c0-5.2,2.7-9.3,7.9-9.3
			c5.9,0,7.9,3.8,7.9,8.5v20.4h6.6V88.6c0-7.6-4-13.4-12.1-13.4c-4.3-0.1-8.3,2.1-10.5,5.9v-4.9h-6.5v34h6.6V90.5z M451.5,105.3
			c-5.6,0-10.6-4.2-10.6-12.2s4.9-12.1,10.6-12.1s10.6,4.2,10.6,12.1S457.1,105.3,451.5,105.3 M451.5,75.2c-10.2,0-17.4,7.7-17.4,18
			s7.2,18.1,17.4,18.1s17.4-7.7,17.4-18.1S461.7,75.2,451.5,75.2 M406.7,65.5h-6.1V71c0,3-1.5,5.2-5.2,5.2h-1.8v6h6.5v18.6
			c0,6.1,3.7,9.7,9.5,9.7c1.5,0,3.1-0.2,4.5-0.6v-5.6c-0.9,0.2-1.7,0.3-2.6,0.3c-3.5,0-4.7-1.6-4.7-4.7V82.2h7.3v-6h-7.3L406.7,65.5
			z M373,105.7c-3.4,0-5.5-2.4-5.5-4.9c0-3,2.1-4.7,4.9-5.1l10.4-1.6v1.6C382.8,103,378.4,105.6,373,105.7 M360.7,101
			c0,5.4,4.5,10.2,11.4,10.2c6.1,0,9.5-3.2,11-5.6c0,1.5,0.1,3.1,0.4,4.6h6.5c-0.3-1.8-0.4-3.7-0.4-5.6v-17c0-6.6-4-12.4-14.1-12.4
			c-7.3,0-13.2,4.5-13.9,11l6.4,1.5c0.4-4,3-6.8,7.7-6.8c5.2,0,7.3,2.8,7.3,6.1c0,1.2-0.6,2.3-2.6,2.5l-9.2,1.4
			C365.1,91.6,360.7,95,360.7,101 M358.7,76.2h-7.1l-9.7,26.2l-9.7-26.2h-7.5l13.8,34h6.7L358.7,76.2z M306.7,105.3
			c-5.6,0-10.6-4.2-10.6-12.2s4.9-12.1,10.6-12.1s10.6,4.2,10.6,12.1S312.3,105.3,306.7,105.3 M306.7,75.2c-10.2,0-17.4,7.7-17.4,18
			s7.2,18.1,17.4,18.1s17.4-7.7,17.4-18.1S316.8,75.2,306.7,75.2 M261.1,90.5c0-5.2,2.7-9.3,7.9-9.3c5.9,0,7.9,3.8,7.9,8.5v20.4h6.6
			V88.6c0-7.6-4-13.4-12.1-13.4c-4.3-0.1-8.3,2.1-10.4,5.9v-4.9h-6.5v34h6.6L261.1,90.5z M224,90.5c0-5.2,2.7-9.3,7.9-9.3
			c5.9,0,7.9,3.8,7.9,8.5v20.4h6.6V88.6c0-7.6-4-13.4-12.1-13.4c-4.3-0.1-8.3,2.1-10.4,5.9v-4.9h-6.5v34h6.6V90.5z M209.4,60.1h-7.1
			v50h7.1V60.1z M338.7,31.5c0-5.1,2.7-9.3,7.9-9.3c5.9,0,7.9,3.8,7.9,8.5v20.4h6.6V29.6c0-7.6-4-13.4-12.1-13.4
			c-4.3-0.1-8.3,2.1-10.4,5.8v-4.8H332v34h6.6L338.7,31.5z M309.5,46.2c-5.6,0-10.6-4.2-10.6-12.1S303.8,22,309.5,22
			S320,26.2,320,34.1S315.1,46.2,309.5,46.2 M309.5,16.1c-10.2,0-17.4,7.7-17.4,18s7.2,18.1,17.4,18.1s17.4-7.7,17.4-18.1
			S319.6,16.1,309.5,16.1 M285.5,17.1H279v34h6.6L285.5,17.1z M273.8,16.8c-0.7-0.1-1.4-0.2-2.2-0.2c-4.4-0.2-8.5,2.4-10.2,6.5v-5.9
			H255v34h6.6v-17c0-7.5,3.7-10.4,9.3-10.4c1,0,1.9,0.1,2.9,0.2L273.8,16.8z M206.3,26c0-13,8.8-19.7,18.1-19.7S242.4,13,242.4,26
			s-8.8,19.8-18.1,19.8S206.3,39.1,206.3,26 M199.2,26c0,16.7,12.6,26.1,25.1,26.1s25.1-9.4,25.1-26.1S236.9,0,224.3,0
			S199.2,9.3,199.2,26 M175.3,0.3h-30.9l-37.9,109.8h31L175.3,0.3z M82.6,55.3c0-15.2-12.3-27.5-27.5-27.5S27.6,40.1,27.6,55.3
			S40,82.8,55.1,82.8S82.6,70.5,82.6,55.3L82.6,55.3 M55,110.4c-30.4,0-55-24.6-55-55s24.6-55,55-55s55,24.6,55,55l0,0
			C110,85.7,85.4,110.4,55,110.4"/>
		<path class="st0" d="M508.5,76.5c-0.2-0.2-0.5-0.2-0.8-0.2c-0.1,0-0.3,0-0.4,0c-0.1,0-0.2,0.1-0.3,0.1c-0.1,0.1-0.2,0.1-0.2,0.3
			c-0.1,0.1-0.1,0.3-0.1,0.4c0,0.1,0,0.3,0.1,0.3c0.1,0.1,0.2,0.2,0.3,0.2c0.2,0.1,0.3,0.1,0.5,0.2l0.5,0.1c0.2,0,0.4,0.1,0.5,0.2
			c0.2,0.1,0.3,0.1,0.5,0.2c0.1,0.1,0.3,0.2,0.3,0.4c0.1,0.2,0.1,0.4,0.1,0.6c0,0.2,0,0.4-0.2,0.6c-0.1,0.2-0.3,0.3-0.4,0.4
			c-0.2,0.1-0.4,0.2-0.6,0.3c-0.2,0-0.4,0.1-0.6,0.1c-0.3,0-0.5,0-0.8-0.1c-0.2-0.1-0.4-0.2-0.6-0.3c-0.2-0.1-0.3-0.3-0.4-0.5
			c-0.1-0.2-0.2-0.5-0.1-0.8h0.6c0,0.2,0,0.4,0.1,0.5c0.1,0.1,0.2,0.3,0.3,0.4c0.1,0.1,0.3,0.2,0.4,0.2c0.2,0,0.3,0.1,0.5,0.1
			c0.1,0,0.3,0,0.4,0c0.1,0,0.3-0.1,0.4-0.1c0.1-0.1,0.2-0.1,0.3-0.3c0.1-0.1,0.1-0.3,0.1-0.4c0-0.1,0-0.3-0.1-0.4
			c-0.1-0.1-0.2-0.2-0.4-0.3c-0.2-0.1-0.3-0.1-0.5-0.2l-0.6-0.1c-0.2,0-0.4-0.1-0.5-0.2c-0.2,0-0.3-0.1-0.5-0.2
			c-0.1-0.1-0.3-0.2-0.4-0.3c-0.1-0.2-0.1-0.4-0.1-0.5c0-0.2,0-0.4,0.1-0.6c0.1-0.2,0.2-0.3,0.4-0.4c0.2-0.1,0.3-0.2,0.5-0.3
			c0.2-0.1,0.4-0.1,0.6-0.1c0.2,0,0.5,0,0.7,0.1c0.2,0.1,0.4,0.1,0.5,0.3c0.2,0.1,0.3,0.3,0.4,0.5c0.1,0.2,0.1,0.4,0.1,0.7h-0.6
			C508.8,76.9,508.7,76.6,508.5,76.5z"/>
		<path class="st0" d="M511.3,75.8l1.5,4l1.5-4h0.9v4.7h-0.6v-3.9l0,0l-1.5,3.9h-0.5l-1.5-3.9l0,0v3.9h-0.6v-4.7H511.3z"/>
	</g>
</g>
</svg>
