<?xml version="1.0" encoding="utf-8"?>

<svg width="60" height="30" viewBox="0 0 60 30" fill="none" xmlns="http://www.w3.org/2000/svg">
  <g>
    <path d="M 52.6 0.488 L 44.435 0.488 L 34.432 29.465 L 42.615 29.465 L 52.6 0.488 Z" fill="white"></path>
    <path d="M 21.022 30 C 12.725 30 6 23.285 6 15 C 6 6.715 12.725 0 21.022 0 C 29.319 0 36.044 6.715 36.044 15 C 36.044 23.285 29.319 30 21.022 30 Z M 28.587 14.984 C 28.587 10.84 25.222 7.48 21.072 7.48 C 16.922 7.48 13.557 10.84 13.557 14.984 C 13.557 19.128 16.922 22.488 21.072 22.488 C 25.222 22.488 28.587 19.128 28.587 14.984 Z" fill="white"></path>
  </g>
</svg>
